<?xml version="1.0" standalone="no"?>
<!DOCTYPE svg PUBLIC "-//W3C//DTD SVG 20010904//EN"
 "http://www.w3.org/TR/2001/REC-SVG-20010904/DTD/svg10.dtd">
<svg version="1.0" xmlns="http://www.w3.org/2000/svg"
 width="592.000000pt" height="217.000000pt" viewBox="0 0 592.000000 217.000000"
 preserveAspectRatio="xMidYMid meet">

<g transform="translate(0.000000,217.000000) scale(0.100000,-0.100000)"
fill="#000000" stroke="none">
<path d="M37 1772 c-15 -17 -17 -61 -17 -434 0 -389 1 -416 18 -431 24 -22 65
-21 85 1 14 15 17 41 17 143 l0 124 41 23 c34 20 43 22 54 10 7 -7 54 -65 105
-128 125 -154 160 -190 185 -190 43 0 70 40 52 75 -6 11 -64 87 -130 168 -84
105 -116 152 -109 159 6 6 59 43 118 82 123 82 139 99 121 136 -26 51 -57 41
-252 -84 l-180 -115 -2 222 c-3 212 -4 223 -24 240 -27 22 -62 22 -82 -1z"/>
<path d="M1534 1530 c-22 -5 -57 -15 -77 -24 -48 -19 -134 -100 -158 -148 -85
-166 -12 -362 165 -444 39 -18 68 -24 126 -24 88 0 134 11 184 45 32 22 36 23
36 6 0 -43 72 -68 104 -35 23 22 23 327 1 402 -45 150 -225 255 -381 222z
m151 -123 c133 -68 168 -232 71 -335 -115 -124 -318 -80 -365 80 -33 109 37
234 149 266 38 11 113 5 145 -11z"/>
<path d="M829 1516 c-124 -44 -206 -149 -180 -229 23 -68 53 -85 242 -131 125
-31 175 -47 177 -58 2 -9 -16 -32 -38 -51 -78 -66 -174 -59 -251 19 -33 33
-51 44 -74 44 -68 0 -75 -59 -16 -123 104 -113 285 -130 406 -39 69 52 95 94
95 153 0 39 -6 55 -30 82 -28 32 -42 38 -178 70 -81 20 -162 39 -179 42 -46 9
-43 35 8 79 78 66 175 57 254 -24 29 -30 47 -40 70 -40 104 0 51 130 -79 191
-69 33 -162 39 -227 15z"/>
<path d="M2812 844 c-17 -12 -22 -25 -22 -60 l0 -44 65 0 c50 0 65 3 65 14 0
10 -14 16 -42 18 -31 2 -44 8 -46 21 -5 23 28 35 40 14 12 -23 38 -21 38 2 0
45 -55 65 -98 35z"/>
<path d="M2200 755 c-15 -18 2 -45 30 -45 23 0 34 28 19 46 -15 18 -33 18 -49
-1z"/>
<path d="M4910 755 c-16 -19 -6 -45 18 -45 29 0 48 26 32 45 -16 19 -34 19
-50 0z"/>
<path d="M1040 550 l0 -150 -40 0 -40 0 0 100 c0 93 -1 100 -20 100 -19 0 -20
-7 -20 -100 l0 -100 -35 0 -35 0 0 95 c0 88 -1 95 -20 95 -19 0 -20 -7 -20
-95 0 -95 0 -95 -25 -95 -25 0 -25 0 -25 95 0 95 0 95 -25 95 -25 0 -25 0 -25
-95 l0 -95 -40 0 -40 0 0 95 c0 95 0 95 -25 95 l-25 0 0 -119 c0 -117 -1 -120
-26 -140 -15 -12 -33 -21 -40 -21 -8 0 -14 -9 -14 -20 0 -42 86 -13 117 40
l17 30 223 0 223 0 0 170 c0 163 -1 170 -20 170 -19 0 -20 -7 -20 -150z"/>
<path d="M1112 528 l3 -173 198 -3 197 -2 0 25 c0 25 -1 25 -79 25 -74 0 -81
2 -100 26 -28 35 -26 69 4 99 42 43 115 26 129 -30 4 -16 13 -25 26 -25 32 0
26 52 -10 89 -82 81 -214 28 -212 -86 0 -24 6 -50 12 -58 11 -13 3 -15 -54
-15 l-66 0 0 150 0 150 -25 0 -25 0 2 -172z"/>
<path d="M2830 525 c0 -168 1 -175 20 -175 19 0 20 7 20 175 0 168 -1 175 -20
175 -19 0 -20 -7 -20 -175z"/>
<path d="M5090 524 l0 -175 23 3 c22 3 22 5 25 176 l2 172 -25 0 -25 0 0 -176z"/>
<path d="M2154 675 c-7 -17 12 -45 31 -45 19 0 36 25 29 44 -8 20 -53 21 -60
1z"/>
<path d="M2234 675 c-7 -17 12 -45 31 -45 19 0 36 25 29 44 -8 20 -53 21 -60
1z"/>
<path d="M4607 683 c-13 -12 -7 -41 10 -47 21 -8 48 17 40 38 -6 16 -38 22
-50 9z"/>
<path d="M4687 683 c-13 -12 -7 -41 10 -47 21 -8 48 17 40 38 -6 16 -38 22
-50 9z"/>
<path d="M4864 675 c-7 -18 12 -45 32 -45 16 0 33 30 27 48 -7 17 -52 15 -59
-3z"/>
<path d="M4944 675 c-7 -18 12 -45 32 -45 16 0 33 30 27 48 -7 17 -52 15 -59
-3z"/>
<path d="M134 590 c-62 -25 -91 -108 -59 -170 14 -27 13 -30 -20 -63 -40 -40
-48 -87 -15 -87 13 0 22 9 26 25 11 46 26 50 223 55 l186 5 3 123 3 122 -26 0
-25 0 0 -100 0 -100 -136 0 c-74 0 -144 4 -154 10 -28 15 -40 61 -25 97 14 33
32 43 75 43 29 0 70 -39 70 -66 0 -8 11 -14 25 -14 31 0 33 22 5 67 -32 53
-99 76 -156 53z"/>
<path d="M2310 500 l0 -100 -35 0 -35 0 0 95 c0 88 -1 95 -20 95 -19 0 -20 -7
-20 -95 l0 -95 -30 0 -30 0 0 95 c0 88 -1 95 -20 95 -19 0 -20 -7 -20 -95 l0
-95 -35 0 -35 0 0 85 0 85 -105 0 c-99 0 -105 -1 -105 -20 0 -13 10 -24 24
-30 50 -19 61 -86 21 -125 -13 -14 -35 -25 -48 -25 -31 0 -77 36 -77 61 0 14
-7 19 -25 19 -39 0 -34 -44 11 -86 29 -28 43 -34 80 -34 60 0 97 21 119 66 16
35 16 74 0 117 -6 14 -1 17 29 17 l36 0 0 -90 0 -90 180 0 180 0 0 125 c0 118
-1 125 -20 125 -19 0 -20 -7 -20 -100z"/>
<path d="M3152 583 c-18 -9 -40 -29 -48 -44 -18 -36 -18 -99 0 -124 13 -18 11
-23 -20 -57 -39 -44 -46 -88 -14 -88 11 0 20 6 20 14 0 7 9 25 21 40 l20 26
275 0 274 0 0 125 0 125 -25 0 -25 0 0 -100 0 -100 -60 0 -60 0 0 100 0 100
-25 0 -25 0 0 -100 0 -100 -139 0 c-163 0 -185 9 -185 75 0 71 90 104 133 49
12 -15 21 -33 21 -40 0 -8 11 -14 26 -14 24 0 25 3 19 28 -10 43 -34 73 -70
88 -44 18 -72 17 -113 -3z"/>
<path d="M3784 590 c-38 -15 -74 -68 -74 -109 0 -77 61 -129 155 -131 l40 -1
-24 -19 c-13 -11 -29 -20 -37 -20 -8 0 -14 -9 -14 -20 0 -42 88 -12 115 40 18
36 20 164 2 200 -27 54 -106 83 -163 60z m103 -62 c18 -17 23 -32 23 -75 l0
-53 -49 0 c-65 0 -81 7 -96 44 -33 78 60 143 122 84z"/>
<path d="M4690 500 l0 -100 -65 0 -65 0 0 95 c0 95 0 95 -25 95 -25 0 -25 0
-25 -99 0 -123 -11 -156 -56 -173 -23 -8 -34 -18 -34 -31 0 -17 5 -19 38 -14
27 5 47 17 72 47 l36 40 247 0 247 0 0 120 c0 113 -1 120 -20 120 -19 0 -20
-7 -20 -100 l0 -100 -35 0 -35 0 0 95 c0 95 0 95 -25 95 -25 0 -25 0 -25 -95
0 -95 0 -95 -25 -95 -25 0 -25 0 -25 95 0 88 -1 95 -20 95 -19 0 -20 -7 -20
-95 l0 -95 -40 0 -40 0 0 100 c0 93 -1 100 -20 100 -19 0 -20 -7 -20 -100z"/>
<path d="M2728 553 c-32 -5 -34 -19 -11 -67 13 -29 14 -39 4 -64 -26 -63 -115
-64 -141 -1 -9 20 -19 29 -36 29 -28 0 -28 -1 -10 -44 21 -51 60 -76 118 -76
43 0 54 4 84 34 30 30 35 44 36 96 1 3 -2 17 -6 33 -5 23 -3 27 15 27 15 0 19
4 15 16 -3 9 -6 18 -6 20 0 4 -19 3 -62 -3z"/>
<path d="M4338 553 c-32 -5 -36 -24 -12 -71 13 -27 13 -36 2 -59 -31 -65 -109
-68 -138 -6 -10 22 -22 33 -37 33 -27 0 -28 -11 -7 -56 20 -43 59 -64 116 -64
79 0 125 57 115 142 -5 42 -4 48 13 48 13 0 17 5 13 20 -5 20 -12 21 -65 13z"/>
<path d="M336 304 c-10 -26 19 -52 42 -38 9 6 17 20 17 30 0 26 -50 32 -59 8z"/>
<path d="M416 304 c-10 -26 19 -52 42 -38 9 6 17 20 17 30 0 26 -50 32 -59 8z"/>
<path d="M3366 304 c-10 -26 19 -52 42 -38 9 6 17 20 17 30 0 26 -50 32 -59 8z"/>
<path d="M3446 304 c-10 -26 19 -52 42 -38 9 6 17 20 17 30 0 26 -50 32 -59 8z"/>
<path d="M3617 314 c-12 -13 -8 -42 8 -48 25 -9 46 5 43 28 -3 21 -37 34 -51
20z"/>
<path d="M1747 294 c-14 -15 -6 -43 14 -49 25 -8 42 6 37 31 -3 19 -38 31 -51
18z"/>
<path d="M1827 293 c-14 -14 -6 -42 14 -48 30 -10 57 18 39 39 -13 16 -42 21
-53 9z"/>
<path d="M2587 293 c-13 -12 -7 -41 10 -47 21 -8 48 17 40 38 -6 16 -38 22
-50 9z"/>
<path d="M2667 293 c-13 -12 -7 -41 10 -47 21 -8 48 17 40 38 -6 16 -38 22
-50 9z"/>
<path d="M4186 283 c-7 -16 16 -43 35 -43 14 0 31 30 25 45 -8 21 -52 19 -60
-2z"/>
<path d="M4266 285 c-5 -14 17 -45 33 -45 15 0 33 30 27 45 -7 19 -52 20 -60
0z"/>
</g>
</svg>
